<svg width="711" height="241" viewBox="0 0 711 241" fill="none" xmlns="http://www.w3.org/2000/svg">
<g clip-path="url(#clip0_211_5)">
<path d="M241.4 222.56V226H191V222.56H201.24C198.68 221.227 196.333 219.573 194.2 217.6L200.12 210.48C205.773 215.387 211.64 217.84 217.72 217.84C220.76 217.84 223.16 217.2 224.92 215.92C226.733 214.587 227.64 212.853 227.64 210.72C227.64 208.533 226.787 206.853 225.08 205.68C223.427 204.453 220.547 203.36 216.44 202.4C212.333 201.387 209.213 200.48 207.08 199.68C204.947 198.827 203.053 197.733 201.4 196.4C198.093 193.893 196.44 190.053 196.44 184.88C196.44 179.707 198.307 175.733 202.04 172.96C205.827 170.133 210.493 168.72 216.04 168.72C219.613 168.72 223.16 169.307 226.68 170.48C230.2 171.653 233.24 173.307 235.8 175.44L230.76 182.56C229.107 181.067 226.867 179.84 224.04 178.88C221.213 177.92 218.413 177.44 215.64 177.44C212.92 177.44 210.68 178 208.92 179.12C207.16 180.24 206.28 181.947 206.28 184.24C206.28 186.48 207.16 188.213 208.92 189.44C210.68 190.613 214.413 191.893 220.12 193.28C225.88 194.667 230.2 196.613 233.08 199.12C236.013 201.627 237.48 205.147 237.48 209.68C237.48 215.173 235.453 219.467 231.4 222.56H241.4ZM249.151 222.56V170.08H288.431V178.96H258.591V193.76H285.391V202.16H258.591V217.12H289.391V222.56H297.151V226H241.391V222.56H249.151ZM372.374 222.56V226H355.174V182.32L335.654 221.12H330.374L310.934 182.32V226H293.734V222.56H301.494V170.08H316.214L333.094 205.2L349.974 170.08H364.614V222.56H372.374ZM380.166 222.56V170.08H389.606V222.56H397.366V226H372.406V222.56H380.166ZM405.088 222.56V170.08H414.528L447.008 211.84V170.08H456.448V222.56H464.208V226H446.208L414.528 185.2V226H397.328V222.56H405.088ZM531.403 222.56V226H464.203V222.56H482.523C478.15 220.053 474.683 216.613 472.123 212.24C469.616 207.867 468.363 202.987 468.363 197.6C468.363 189.387 471.19 182.533 476.843 177.04C482.496 171.493 489.483 168.72 497.803 168.72C506.123 168.72 513.11 171.493 518.763 177.04C524.416 182.533 527.243 189.387 527.243 197.6C527.243 202.933 525.963 207.813 523.403 212.24C520.896 216.667 517.456 220.107 513.083 222.56H531.403ZM511.803 183.28C508.016 179.333 503.35 177.36 497.803 177.36C492.256 177.36 487.563 179.333 483.723 183.28C479.936 187.227 478.043 192.027 478.043 197.68C478.043 203.28 479.936 208.053 483.723 212C487.563 215.947 492.256 217.92 497.803 217.92C503.35 217.92 508.016 215.947 511.803 212C515.643 208.053 517.563 203.28 517.563 197.68C517.563 192.027 515.643 187.227 511.803 183.28ZM587.391 222.56V226H531.391V222.56H552.671L531.631 170.08H542.191L559.391 211.84L576.591 170.08H587.151L566.031 222.56H587.391ZM654.606 222.56V226H587.406V222.56H605.726C601.353 220.053 597.886 216.613 595.326 212.24C592.82 207.867 591.566 202.987 591.566 197.6C591.566 189.387 594.393 182.533 600.046 177.04C605.7 171.493 612.686 168.72 621.006 168.72C629.326 168.72 636.313 171.493 641.966 177.04C647.62 182.533 650.446 189.387 650.446 197.6C650.446 202.933 649.166 207.813 646.606 212.24C644.1 216.667 640.66 220.107 636.286 222.56H654.606ZM635.006 183.28C631.22 179.333 626.553 177.36 621.006 177.36C615.46 177.36 610.766 179.333 606.926 183.28C603.14 187.227 601.246 192.027 601.246 197.68C601.246 203.28 603.14 208.053 606.926 212C610.766 215.947 615.46 217.92 621.006 217.92C626.553 217.92 631.22 215.947 635.006 212C638.846 208.053 640.766 203.28 640.766 197.68C640.766 192.027 638.846 187.227 635.006 183.28ZM704.994 222.56V226H654.594V222.56H664.834C662.274 221.227 659.927 219.573 657.794 217.6L663.714 210.48C669.367 215.387 675.234 217.84 681.314 217.84C684.354 217.84 686.754 217.2 688.514 215.92C690.327 214.587 691.234 212.853 691.234 210.72C691.234 208.533 690.38 206.853 688.674 205.68C687.02 204.453 684.14 203.36 680.034 202.4C675.927 201.387 672.807 200.48 670.674 199.68C668.54 198.827 666.647 197.733 664.994 196.4C661.687 193.893 660.034 190.053 660.034 184.88C660.034 179.707 661.9 175.733 665.634 172.96C669.42 170.133 674.087 168.72 679.634 168.72C683.207 168.72 686.754 169.307 690.274 170.48C693.794 171.653 696.834 173.307 699.394 175.44L694.354 182.56C692.7 181.067 690.46 179.84 687.634 178.88C684.807 177.92 682.007 177.44 679.234 177.44C676.514 177.44 674.274 178 672.514 179.12C670.754 180.24 669.874 181.947 669.874 184.24C669.874 186.48 670.754 188.213 672.514 189.44C674.274 190.613 678.007 191.893 683.714 193.28C689.474 194.667 693.794 196.613 696.674 199.12C699.607 201.627 701.074 205.147 701.074 209.68C701.074 215.173 699.047 219.467 694.994 222.56H704.994Z" fill="white"/>
<path d="M339.4 138.55V145H229V138.55H262.3C254.4 133.85 248.15 127.45 243.55 119.35C239.05 111.25 236.8 102.1 236.8 91.9C236.8 76.5 242.1 63.6 252.7 53.2C263.4 42.8 276.85 37.6 293.05 37.6C309.35 37.6 322.95 43.6 333.85 55.6L322.6 67.9C317.6 63.1 312.85 59.75 308.35 57.85C303.95 55.95 298.75 55 292.75 55C282.15 55 273.25 58.45 266.05 65.35C258.85 72.15 255.25 80.9 255.25 91.6C255.25 102.2 258.8 111.1 265.9 118.3C273.1 125.4 281.6 128.95 291.4 128.95C297.5 128.95 302.75 127.95 307.15 125.95C311.55 123.85 316.15 120.55 320.95 116.05L332.35 127.75C327.95 132.55 323.75 136.15 319.75 138.55H339.4ZM465.299 138.55V145H431.849L421.349 121.15H368.849L358.349 145H324.899V138.55H342.299L385.649 40.15H404.549L447.899 138.55H465.299ZM414.149 104.8L395.099 61.6L376.049 104.8H414.149ZM563.727 138.55V145H531.327L506.277 109.75H483.027V145H450.777V138.55H465.327V40.15H504.327C520.327 40.15 531.777 42.85 538.677 48.25C545.577 53.65 549.027 62.3 549.027 74.2C549.027 91.5 541.477 102.4 526.377 106.9L549.177 138.55H563.727ZM505.077 93.7C515.077 93.7 521.877 92.15 525.477 89.05C529.077 85.95 530.877 81 530.877 74.2C530.877 67.3 529.027 62.6 525.327 60.1C521.627 57.5 515.027 56.2 505.527 56.2H483.027V93.7H505.077ZM654.408 138.55V145H559.908V138.55H579.108C574.308 136.05 569.908 132.95 565.908 129.25L577.008 115.9C587.608 125.1 598.608 129.7 610.008 129.7C615.708 129.7 620.208 128.5 623.508 126.1C626.908 123.6 628.608 120.35 628.608 116.35C628.608 112.25 627.008 109.1 623.808 106.9C620.708 104.6 615.308 102.55 607.608 100.75C599.908 98.85 594.058 97.15 590.058 95.65C586.058 94.05 582.508 92 579.408 89.5C573.208 84.8 570.108 77.6 570.108 67.9C570.108 58.2 573.608 50.75 580.608 45.55C587.708 40.25 596.458 37.6 606.858 37.6C613.558 37.6 620.208 38.7 626.808 40.9C633.408 43.1 639.108 46.2 643.908 50.2L634.458 63.55C631.358 60.75 627.158 58.45 621.858 56.65C616.558 54.85 611.308 53.95 606.108 53.95C601.008 53.95 596.808 55 593.508 57.1C590.208 59.2 588.558 62.4 588.558 66.7C588.558 70.9 590.208 74.15 593.508 76.45C596.808 78.65 603.808 81.05 614.508 83.65C625.308 86.25 633.408 89.9 638.808 94.6C644.308 99.3 647.058 105.9 647.058 114.4C647.058 124.7 643.258 132.75 635.658 138.55H654.408Z" fill="white"/>
<path d="M-2.48438 1.5625H31.8906L101.422 239.062L88.9219 275H76.8125L-2.48438 1.5625ZM92.8281 146.484L141.266 1.5625H175.641C173.297 9.11458 163.531 39.3229 146.344 92.1875C126.292 153.646 114.833 188.932 111.969 198.047H108.062L92.8281 146.484Z" fill="white"/>
</g>
<defs>
<clipPath id="clip0_211_5">
<rect width="711" height="241" fill="white"/>
</clipPath>
</defs>
</svg>
