<svg width="595" height="221" viewBox="0 0 595 221" fill="none" xmlns="http://www.w3.org/2000/svg">
<g clip-path="url(#clip0_205_7)">
<rect width="595" height="221" rx="30" fill="url(#paint0_diamond_205_7)"/>
<path d="M259.98 173.022V175H231V173.022H236.888C235.416 172.255 234.067 171.305 232.84 170.17L236.244 166.076C239.495 168.897 242.868 170.308 246.364 170.308C248.112 170.308 249.492 169.94 250.504 169.204C251.547 168.437 252.068 167.441 252.068 166.214C252.068 164.957 251.577 163.991 250.596 163.316C249.645 162.611 247.989 161.982 245.628 161.43C243.267 160.847 241.473 160.326 240.246 159.866C239.019 159.375 237.931 158.747 236.98 157.98C235.079 156.539 234.128 154.331 234.128 151.356C234.128 148.381 235.201 146.097 237.348 144.502C239.525 142.877 242.209 142.064 245.398 142.064C247.453 142.064 249.492 142.401 251.516 143.076C253.54 143.751 255.288 144.701 256.76 145.928L253.862 150.022C252.911 149.163 251.623 148.458 249.998 147.906C248.373 147.354 246.763 147.078 245.168 147.078C243.604 147.078 242.316 147.4 241.304 148.044C240.292 148.688 239.786 149.669 239.786 150.988C239.786 152.276 240.292 153.273 241.304 153.978C242.316 154.653 244.463 155.389 247.744 156.186C251.056 156.983 253.54 158.103 255.196 159.544C256.883 160.985 257.726 163.009 257.726 165.616C257.726 168.775 256.561 171.243 254.23 173.022H259.98ZM264.437 173.022V142.846H287.023V147.952H269.865V156.462H285.275V161.292H269.865V169.894H287.575V173.022H292.037V175H259.975V173.022H264.437ZM335.29 173.022V175H325.4V149.884L314.176 172.194H311.14L299.962 149.884V175H290.072V173.022H294.534V142.846H302.998L312.704 163.04L322.41 142.846H330.828V173.022H335.29ZM339.771 173.022V142.846H345.199V173.022H349.661V175H335.309V173.022H339.771ZM354.101 173.022V142.846H359.529L378.205 166.858V142.846H383.633V173.022H388.095V175H377.745L359.529 151.54V175H349.639V173.022H354.101ZM426.732 173.022V175H388.092V173.022H398.626C396.111 171.581 394.118 169.603 392.646 167.088C391.204 164.573 390.484 161.767 390.484 158.67C390.484 153.947 392.109 150.007 395.36 146.848C398.61 143.659 402.628 142.064 407.412 142.064C412.196 142.064 416.213 143.659 419.464 146.848C422.714 150.007 424.34 153.947 424.34 158.67C424.34 161.737 423.604 164.543 422.132 167.088C420.69 169.633 418.712 171.611 416.198 173.022H426.732ZM415.462 150.436C413.284 148.167 410.601 147.032 407.412 147.032C404.222 147.032 401.524 148.167 399.316 150.436C397.138 152.705 396.05 155.465 396.05 158.716C396.05 161.936 397.138 164.681 399.316 166.95C401.524 169.219 404.222 170.354 407.412 170.354C410.601 170.354 413.284 169.219 415.462 166.95C417.67 164.681 418.774 161.936 418.774 158.716C418.774 155.465 417.67 152.705 415.462 150.436ZM458.925 173.022V175H426.725V173.022H438.961L426.863 142.846H432.935L442.825 166.858L452.715 142.846H458.787L446.643 173.022H458.925ZM497.574 173.022V175H458.934V173.022H469.468C466.953 171.581 464.96 169.603 463.488 167.088C462.046 164.573 461.326 161.767 461.326 158.67C461.326 153.947 462.951 150.007 466.202 146.848C469.452 143.659 473.47 142.064 478.254 142.064C483.038 142.064 487.055 143.659 490.306 146.848C493.556 150.007 495.182 153.947 495.182 158.67C495.182 161.737 494.446 164.543 492.974 167.088C491.532 169.633 489.554 171.611 487.04 173.022H497.574ZM486.304 150.436C484.126 148.167 481.443 147.032 478.254 147.032C475.064 147.032 472.366 148.167 470.158 150.436C467.98 152.705 466.892 155.465 466.892 158.716C466.892 161.936 467.98 164.681 470.158 166.95C472.366 169.219 475.064 170.354 478.254 170.354C481.443 170.354 484.126 169.219 486.304 166.95C488.512 164.681 489.616 161.936 489.616 158.716C489.616 155.465 488.512 152.705 486.304 150.436ZM526.546 173.022V175H497.566V173.022H503.454C501.982 172.255 500.633 171.305 499.406 170.17L502.81 166.076C506.061 168.897 509.434 170.308 512.93 170.308C514.678 170.308 516.058 169.94 517.07 169.204C518.113 168.437 518.634 167.441 518.634 166.214C518.634 164.957 518.144 163.991 517.162 163.316C516.212 162.611 514.556 161.982 512.194 161.43C509.833 160.847 508.039 160.326 506.812 159.866C505.586 159.375 504.497 158.747 503.546 157.98C501.645 156.539 500.694 154.331 500.694 151.356C500.694 148.381 501.768 146.097 503.914 144.502C506.092 142.877 508.775 142.064 511.964 142.064C514.019 142.064 516.058 142.401 518.082 143.076C520.106 143.751 521.854 144.701 523.326 145.928L520.428 150.022C519.478 149.163 518.19 148.458 516.564 147.906C514.939 147.354 513.329 147.078 511.734 147.078C510.17 147.078 508.882 147.4 507.87 148.044C506.858 148.688 506.352 149.669 506.352 150.988C506.352 152.276 506.858 153.273 507.87 153.978C508.882 154.653 511.029 155.389 514.31 156.186C517.622 156.983 520.106 158.103 521.762 159.544C523.449 160.985 524.292 163.009 524.292 165.616C524.292 168.775 523.127 171.243 520.796 173.022H526.546Z" fill="white"/>
<path d="M301.6 110.7V115H228V110.7H250.2C244.933 107.567 240.767 103.3 237.7 97.9C234.7 92.5 233.2 86.4 233.2 79.6C233.2 69.3333 236.733 60.7333 243.8 53.8C250.933 46.8667 259.9 43.4 270.7 43.4C281.567 43.4 290.633 47.4 297.9 55.4L290.4 63.6C287.067 60.4 283.9 58.1667 280.9 56.9C277.967 55.6333 274.5 55 270.5 55C263.433 55 257.5 57.3 252.7 61.9C247.9 66.4333 245.5 72.2667 245.5 79.4C245.5 86.4667 247.867 92.4 252.6 97.2C257.4 101.933 263.067 104.3 269.6 104.3C273.667 104.3 277.167 103.633 280.1 102.3C283.033 100.9 286.1 98.7 289.3 95.7L296.9 103.5C293.967 106.7 291.167 109.1 288.5 110.7H301.6ZM385.533 110.7V115H363.233L356.233 99.1H321.233L314.233 115H291.933V110.7H303.533L332.433 45.1H345.033L373.933 110.7H385.533ZM351.433 88.2L338.733 59.4L326.033 88.2H351.433ZM451.152 110.7V115H429.552L412.852 91.5H397.352V115H375.852V110.7H385.552V45.1H411.552C422.218 45.1 429.852 46.9 434.452 50.5C439.052 54.1 441.352 59.8667 441.352 67.8C441.352 79.3333 436.318 86.6 426.252 89.6L441.452 110.7H451.152ZM412.052 80.8C418.718 80.8 423.252 79.7667 425.652 77.7C428.052 75.6333 429.252 72.3333 429.252 67.8C429.252 63.2 428.018 60.0667 425.552 58.4C423.085 56.6667 418.685 55.8 412.352 55.8H397.352V80.8H412.052ZM511.605 110.7V115H448.605V110.7H461.405C458.205 109.033 455.272 106.967 452.605 104.5L460.005 95.6C467.072 101.733 474.405 104.8 482.005 104.8C485.805 104.8 488.805 104 491.005 102.4C493.272 100.733 494.405 98.5667 494.405 95.9C494.405 93.1667 493.339 91.0667 491.205 89.6C489.139 88.0667 485.539 86.7 480.405 85.5C475.272 84.2333 471.372 83.1 468.705 82.1C466.039 81.0333 463.672 79.6667 461.605 78C457.472 74.8667 455.405 70.0667 455.405 63.6C455.405 57.1333 457.739 52.1667 462.405 48.7C467.139 45.1667 472.972 43.4 479.905 43.4C484.372 43.4 488.805 44.1333 493.205 45.6C497.605 47.0667 501.405 49.1333 504.605 51.8L498.305 60.7C496.239 58.8333 493.439 57.3 489.905 56.1C486.372 54.9 482.872 54.3 479.405 54.3C476.005 54.3 473.205 55 471.005 56.4C468.805 57.8 467.705 59.9333 467.705 62.8C467.705 65.6 468.805 67.7667 471.005 69.3C473.205 70.7667 477.872 72.3667 485.005 74.1C492.205 75.8333 497.605 78.2667 501.205 81.4C504.872 84.5333 506.705 88.9333 506.705 94.6C506.705 101.467 504.172 106.833 499.105 110.7H511.605Z" fill="white"/>
<path d="M20.1641 -5.09375H51.1016L113.68 208.656L102.43 241H91.5312L20.1641 -5.09375ZM105.945 125.336L149.539 -5.09375H180.477C178.367 1.70312 169.578 28.8906 154.109 76.4688C136.062 131.781 125.75 163.539 123.172 171.742H119.656L105.945 125.336Z" fill="white"/>
</g>
<defs>
<radialGradient id="paint0_diamond_205_7" cx="0" cy="0" r="1" gradientUnits="userSpaceOnUse" gradientTransform="translate(297.5 110) rotate(45.8926) scale(345.386 734.802)">
<stop stop-color="#005284"/>
<stop offset="0.470982" stop-color="#4FAAC5"/>
<stop offset="0.9998" stop-color="#2E85AA"/>
<stop offset="0.9999" stop-color="#005284"/>
</radialGradient>
<clipPath id="clip0_205_7">
<rect width="595" height="221" fill="white"/>
</clipPath>
</defs>
</svg>
